<svg width="15" height="17" viewBox="0 0 15 17" fill="none" xmlns="http://www.w3.org/2000/svg">
<path fill-rule="evenodd" clip-rule="evenodd" d="M2.32129 1.5L0 1.51196L0.00664362 2.87258L1.41509 2.86593L3.65666 8.24329L2.84348 9.54544C2.57135 9.98084 2.5553 10.5301 2.80361 10.9791C3.05193 11.4281 3.52703 11.7073 4.04066 11.7073H5.52219C5.58138 11.2317 5.70147 10.7759 5.87563 10.3467H4.04066L3.99681 10.2669L4.7967 8.98605H6.6742C7.67153 7.74312 9.20102 6.94512 10.9195 6.94512C11.21 6.94512 11.4929 6.97466 11.7712 7.0182L13.5171 3.87311C13.7682 3.42002 13.4403 2.86327 12.9219 2.86327H2.88865L2.32129 1.5ZM10.9181 8.30574C8.66701 8.30574 6.8363 10.1364 6.8363 12.3876C6.8363 14.6387 8.66701 16.4694 10.9181 16.4694C13.1693 16.4694 15 14.6387 15 12.3876C15 10.1364 13.1693 8.30574 10.9181 8.30574ZM11.338 10.3467H11.5985V14.4285H10.2378V11.884L9.40074 12.1976V11.1386L11.338 10.3467ZM4.11507 12.3876C3.36362 12.3876 2.75445 12.9968 2.75445 13.7482C2.75445 14.4997 3.36362 15.1088 4.11507 15.1088C4.86652 15.1088 5.47568 14.4997 5.47568 13.7482C5.47568 12.9968 4.86652 12.3876 4.11507 12.3876Z" fill="#F9D704"/>
<rect x="9" y="9.5" width="4" height="5" fill="#F9D704"/>
<path d="M13.4153 13.471H12.6173V14.5H11.5113V13.471H8.87227V12.708L11.1823 9.6H12.3723L10.2303 12.547H11.5463V11.63H12.6173V12.547H13.4153V13.471Z" fill="black"/>
</svg>
