<svg width="15" height="17" viewBox="0 0 15 17" fill="none" xmlns="http://www.w3.org/2000/svg">
<path fill-rule="evenodd" clip-rule="evenodd" d="M2.56201 1.24707L0.00292969 1.26025L0.010254 2.76025L1.56299 2.75293L4.03418 8.68115L3.13623 10.1167C2.50746 11.1208 3.27201 12.5 4.45605 12.5H13.5V11H4.45605C4.3726 11 4.36298 10.9836 4.40771 10.9121L5.28955 9.5H10.8911C11.4356 9.5 11.9381 9.20428 12.2021 8.72803L14.9033 3.86328C15.1816 3.36378 14.82 2.75 14.2485 2.75H3.1875L2.56201 1.24707ZM4.5 13.25C3.67157 13.25 3 13.9216 3 14.75C3 15.5784 3.67157 16.25 4.5 16.25C5.32843 16.25 6 15.5784 6 14.75C6 13.9216 5.32843 13.25 4.5 13.25ZM12 13.25C11.1716 13.25 10.5 13.9216 10.5 14.75C10.5 15.5784 11.1716 16.25 12 16.25C12.8284 16.25 13.5 15.5784 13.5 14.75C13.5 13.9216 12.8284 13.25 12 13.25Z" fill="#F9D704"/>
</svg>
