<svg width="15" height="17" viewBox="0 0 15 17" fill="none" xmlns="http://www.w3.org/2000/svg">
<path fill-rule="evenodd" clip-rule="evenodd" d="M12.7989 0.5C11.8114 0.5 11.0212 1.29028 11.0212 2.27778C11.0212 3.26528 11.8114 4.05556 12.7989 4.05556C13.7864 4.05556 14.5767 3.26528 14.5767 2.27778C14.5767 1.29028 13.7864 0.5 12.7989 0.5ZM6.53367 2.98889C6.33922 2.98889 6.14755 3.02778 5.96978 3.10556L3.67672 4.09444V4.09583C3.39061 4.19583 3.19894 4.46389 3.19894 4.76667C3.19894 5.15972 3.517 5.47778 3.91005 5.47778C4.02533 5.47778 4.13922 5.45 4.24061 5.39583L6.47394 4.41111H7.58505L5.39339 6.60139V6.60556C5.12672 6.87222 4.97672 7.23333 4.97672 7.61111C4.97672 8.08472 5.21283 8.52778 5.60589 8.79028L7.82117 10.4556V13.4778C7.82117 13.6708 7.88367 13.8569 7.99894 14.0111H4.65589C4.37255 14.0111 4.02811 13.9194 3.76283 13.7722L3.01978 13.3458C2.95867 13.3097 2.88644 13.2931 2.81561 13.2986C2.65728 13.3083 2.52533 13.4208 2.49061 13.575C2.45589 13.7306 2.52811 13.8889 2.667 13.9653L3.41561 14.3917L3.417 14.3931C3.667 14.5319 3.94478 14.6264 4.22672 14.6778C4.03228 14.8722 3.91005 15.1389 3.91005 15.4333C3.91005 16.0181 4.392 16.5 4.97672 16.5C5.56144 16.5 6.04339 16.0181 6.04339 15.4333C6.04339 15.1597 5.93506 14.9125 5.76422 14.7222H9.87811C9.70728 14.9125 9.59894 15.1597 9.59894 15.4333C9.59894 16.0181 10.0809 16.5 10.6656 16.5C11.2503 16.5 11.7323 16.0181 11.7323 15.4333C11.7323 15.1403 11.6114 14.8722 11.417 14.6792C11.7073 14.6278 11.9781 14.5292 12.2253 14.3931L12.2267 14.3917L12.9753 13.9653C13.1462 13.8667 13.2059 13.65 13.1087 13.4792C13.0101 13.3083 12.7934 13.2486 12.6226 13.3458L11.8795 13.7722C11.6045 13.925 11.3128 14.0111 10.9864 14.0111H9.41978C9.53506 13.8569 9.59894 13.6708 9.59894 13.4778V9.92222C9.59894 9.6125 9.43644 9.325 9.17117 9.16389V9.16111C9.17117 9.16111 8.3545 8.57083 7.78644 8.14444L10.6309 5.22917C11.1281 4.73194 11.1281 3.87778 10.6309 3.37917C10.3809 3.09583 10.0253 2.98889 9.59894 2.98889H6.53367ZM10.717 6.18889L9.29478 7.61111H12.4434C12.8351 7.61111 13.1545 7.29167 13.1545 6.9C13.1545 6.50833 12.8351 6.18889 12.4434 6.18889H10.717ZM4.39061 8.3125L2.98644 9.74444H0.944777C0.423944 9.74444 -0.0316116 10.1722 0.00172171 10.6917C0.0294995 11.1611 0.410055 11.5222 0.887833 11.5222H3.467C3.75033 11.5222 4.02117 11.4097 4.22117 11.2097L5.70867 9.72361L4.81561 9.03194C4.62533 8.82083 4.48367 8.575 4.39061 8.3125ZM4.97672 15.0778C5.17672 15.0778 5.33228 15.2333 5.33228 15.4333C5.33228 15.6333 5.17672 15.7889 4.97672 15.7889C4.77672 15.7889 4.62117 15.6333 4.62117 15.4333C4.62117 15.2333 4.77672 15.0778 4.97672 15.0778ZM10.6656 15.0778C10.8656 15.0778 11.0212 15.2333 11.0212 15.4333C11.0212 15.6333 10.8656 15.7889 10.6656 15.7889C10.4656 15.7889 10.3101 15.6333 10.3101 15.4333C10.3101 15.2333 10.4656 15.0778 10.6656 15.0778Z" fill="black"/>
</svg>
